<svg width="14" height="14" viewBox="0 0 14 14" fill="none" xmlns="http://www.w3.org/2000/svg">
<path d="M10.4667 6.13334H7.13332M10.4667 8.8H7.13332M10.4667 3.46667H7.13332M4.79999 0.800003L4.79999 12.8M3.99999 0.800003H9.59999C10.7201 0.800003 11.2801 0.800003 11.708 1.01799C12.0843 1.20974 12.3903 1.5157 12.582 1.89202C12.8 2.31985 12.8 2.8799 12.8 4V9.6C12.8 10.7201 12.8 11.2802 12.582 11.708C12.3903 12.0843 12.0843 12.3903 11.708 12.582C11.2801 12.8 10.7201 12.8 9.59999 12.8H3.99999C2.87988 12.8 2.31983 12.8 1.89201 12.582C1.51568 12.3903 1.20972 12.0843 1.01797 11.708C0.799988 11.2802 0.799988 10.7201 0.799988 9.6V4C0.799988 2.8799 0.799988 2.31985 1.01797 1.89202C1.20972 1.5157 1.51568 1.20974 1.89201 1.01799C2.31983 0.800003 2.87988 0.800003 3.99999 0.800003Z" stroke="#9CA3AF" stroke-width="1.6" stroke-linecap="round" stroke-linejoin="round"/>
</svg>
