<svg width="16" height="16" viewBox="0 0 16 16" fill="none" xmlns="http://www.w3.org/2000/svg">
<path d="M0 6.47619C0 2.89949 2.89949 0 6.47619 0H9.52381C13.1005 0 16 2.89949 16 6.47619V9.52381C16 13.1005 13.1005 16 9.52381 16H6.47619C2.89949 16 0 13.1005 0 9.52381V6.47619Z" fill="#E7F3F8"/>
<g clip-path="url(#clip0_1_4115)">
<path d="M10.3333 12.2V11.2667C10.3333 10.7716 10.1367 10.2968 9.7866 9.94672C9.43653 9.59665 8.96174 9.39999 8.46667 9.39999H4.73334C4.23826 9.39999 3.76347 9.59665 3.4134 9.94672C3.06333 10.2968 2.86667 10.7716 2.86667 11.2667V12.2M13.1333 12.2V11.2667C13.133 10.8531 12.9954 10.4513 12.742 10.1244C12.4886 9.79752 12.1338 9.56405 11.7333 9.46065M9.86667 3.86065C10.2682 3.96346 10.6241 4.19698 10.8782 4.5244C11.1324 4.85182 11.2703 5.25451 11.2703 5.66899C11.2703 6.08347 11.1324 6.48616 10.8782 6.81358C10.6241 7.14099 10.2682 7.37451 9.86667 7.47732M8.46667 5.66665C8.46667 6.69759 7.63093 7.53332 6.6 7.53332C5.56907 7.53332 4.73334 6.69759 4.73334 5.66665C4.73334 4.63572 5.56907 3.79999 6.6 3.79999C7.63093 3.79999 8.46667 4.63572 8.46667 5.66665Z" stroke="#347FA9" stroke-width="1.12" stroke-linecap="round" stroke-linejoin="round"/>
</g>
<defs>
<clipPath id="clip0_1_4115">
<rect width="11.2" height="11.2" fill="white" transform="translate(2.4 2.39999)"/>
</clipPath>
</defs>
</svg>
