<svg width="14" height="14" viewBox="0 0 14 14" fill="none" xmlns="http://www.w3.org/2000/svg">
<path d="M10.4667 10.1333H3.13334M10.4667 7.46667H3.13334M0.800003 4.8H12.8M4 0.800003H9.6C10.7201 0.800003 11.2802 0.800003 11.708 1.01799C12.0843 1.20974 12.3903 1.5157 12.582 1.89202C12.8 2.31985 12.8 2.8799 12.8 4V9.6C12.8 10.7201 12.8 11.2802 12.582 11.708C12.3903 12.0843 12.0843 12.3903 11.708 12.582C11.2802 12.8 10.7201 12.8 9.6 12.8H4C2.8799 12.8 2.31985 12.8 1.89202 12.582C1.5157 12.3903 1.20974 12.0843 1.01799 11.708C0.800003 11.2802 0.800003 10.7201 0.800003 9.6V4C0.800003 2.8799 0.800003 2.31985 1.01799 1.89202C1.20974 1.5157 1.5157 1.20974 1.89202 1.01799C2.31985 0.800003 2.8799 0.800003 4 0.800003Z" stroke="#9CA3AF" stroke-width="1.6" stroke-linecap="round" stroke-linejoin="round"/>
</svg>
