<svg width="28" height="28" viewBox="0 0 28 28" fill="none" xmlns="http://www.w3.org/2000/svg">
<rect width="28" height="28" rx="14" fill="url(#paint0_linear_1_5767)"/>
<g clip-path="url(#clip0_1_5767)">
<path d="M11.1913 14.5833L11.6489 15.4985C11.8038 15.8083 11.8812 15.9631 11.9846 16.0973C12.0764 16.2164 12.1832 16.3232 12.3023 16.415C12.4365 16.5184 12.5913 16.5959 12.9011 16.7507L13.8163 17.2083L12.9011 17.6659C12.5913 17.8208 12.4365 17.8982 12.3023 18.0017C12.1832 18.0935 12.0764 18.2002 11.9846 18.3193C11.8812 18.4535 11.8038 18.6084 11.6489 18.9181L11.1913 19.8333L10.7337 18.9181C10.5788 18.6084 10.5014 18.4535 10.3979 18.3193C10.3061 18.2002 10.1994 18.0935 10.0803 18.0017C9.94609 17.8982 9.79122 17.8208 9.48149 17.6659L8.56628 17.2083L9.48149 16.7507C9.79122 16.5959 9.94609 16.5184 10.0803 16.415C10.1994 16.3232 10.3061 16.2164 10.3979 16.0973C10.5014 15.9631 10.5788 15.8083 10.7337 15.4985L11.1913 14.5833Z" stroke="#EBF5FF" stroke-width="1.225" stroke-linecap="round" stroke-linejoin="round"/>
<path d="M16.1496 8.16666L16.8371 9.95424C17.0017 10.382 17.0839 10.5958 17.2118 10.7757C17.3252 10.9351 17.4645 11.0744 17.6239 11.1878C17.8038 11.3157 18.0177 11.398 18.4454 11.5625L20.233 12.25L18.4454 12.9375C18.0177 13.102 17.8038 13.1843 17.6239 13.3122C17.4645 13.4256 17.3252 13.5649 17.2118 13.7243C17.0839 13.9042 17.0017 14.118 16.8371 14.5458L16.1496 16.3333L15.4621 14.5458C15.2976 14.118 15.2153 13.9042 15.0874 13.7243C14.9741 13.5649 14.8348 13.4256 14.6753 13.3122C14.4954 13.1843 14.2816 13.102 13.8539 12.9375L12.0663 12.25L13.8539 11.5625C14.2816 11.398 14.4954 11.3157 14.6753 11.1878C14.8348 11.0744 14.9741 10.9351 15.0874 10.7757C15.2153 10.5958 15.2976 10.382 15.4621 9.95424L16.1496 8.16666Z" stroke="#EBF5FF" stroke-width="1.225" stroke-linecap="round" stroke-linejoin="round"/>
</g>
<defs>
<linearGradient id="paint0_linear_1_5767" x1="24.8797" y1="7.03813e-07" x2="3.12031" y2="28" gradientUnits="userSpaceOnUse">
<stop stop-color="#9061F9"/>
<stop offset="1" stop-color="#D03801"/>
</linearGradient>
<clipPath id="clip0_1_5767">
<rect width="14" height="14" fill="white" transform="translate(7.39966 7)"/>
</clipPath>
</defs>
</svg>
